<?xml version="1.0" encoding="UTF-8"?>
<svg width="512" height="512" viewBox="0 0 512 512" fill="none" xmlns="http://www.w3.org/2000/svg">
    <!-- Фон -->
    <rect width="512" height="512" rx="128" fill="#4A90E2"/>
    
    <!-- Декоративные элементы -->
    <circle cx="256" cy="256" r="180" fill="white" fill-opacity="0.1"/>
    <circle cx="256" cy="256" r="140" fill="white" fill-opacity="0.15"/>
    
    <!-- Основной символ (стилизованная буква S) -->
    <path d="M316 186C316 164.461 298.539 147 277 147H235C213.461 147 196 164.461 196 186V186C196 207.539 213.461 225 235 225H277C298.539 225 316 242.461 316 264V264C316 285.539 298.539 303 277 303H235C213.461 303 196 285.539 196 264" 
          stroke="white" 
          stroke-width="32" 
          stroke-linecap="round"/>
    
    <!-- Декоративные точки -->
    <circle cx="196" cy="186" r="12" fill="white"/>
    <circle cx="316" cy="264" r="12" fill="white"/>
    
    <!-- Дополнительные элементы -->
    <path d="M256 120V140M256 372V392" stroke="white" stroke-width="24" stroke-linecap="round"/>
    <path d="M392 256L372 256M140 256L120 256" stroke="white" stroke-width="24" stroke-linecap="round"/>
</svg>
